<?xml version="1.0" encoding="UTF-8"?>
<svg id="Layer_2" data-name="Layer 2" xmlns="http://www.w3.org/2000/svg" viewBox="0 0 242.69 131.73">
  <defs>
    <style>
      .cls-1 {
        fill: #fff;
      }

      .cls-2 {
        fill: #095fe1;
      }

      .cls-3 {
        fill: #3191fc;
      }
    </style>
  </defs>
  <g id="Layer_1-2" data-name="Layer 1">
    <g>
      <g>
        <path class="cls-2" d="m125.97,5.41c61.53,15.68-29.16,49.45-59.96,85.23C80.28,9.27,88.01,19.3,125.97,5.41Z"/>
        <path class="cls-3" d="m59.61,125.57C-56.19,97.12,13.34-27.91,126.73,5.69c-9.07,4.04-40.41,21.19-49.43,37.01,42.69-36.06,238.45-21.61,136.2,61.1-39.98,32.34-107.88,32.03-153.88,21.76Z"/>
      </g>
      <g>
        <path class="cls-1" d="m56.12,51.53l-.36,3.22c-.1,1.09-.47,1.98-1.72,1.87-1.46-.1-4.06-.31-6.08-.31-3.28,0-6.34.57-6.34,2.86,0,4.26,8.58,6.45,8.58,13.52,0,8.37-9.52,11.8-20.75,11.8-2.76,0-4.94-.16-6.81-.31-1.66-.16-1.92-.78-1.77-2.34l.36-3.33c.1-1.09.47-1.98,1.72-1.87,1.56.16,3.69.31,6.76.31,5.41,0,7.96-.83,7.96-3.28,0-3.85-8.68-5.98-8.68-13.1,0-7.59,8.01-11.7,18.62-11.7,2.34,0,4.89.1,6.76.31,1.66.16,1.98.78,1.77,2.34Z"/>
        <path class="cls-1" d="m53.93,75.4c0-8.68,10.56-20.75,23.82-20.75,6.14,0,11.08,3.28,11.08,8.89,0,4.26-1.98,5.98-5.98,7.07-4.11,1.14-11.39,2.34-17.94,2.86-.05.31-.05.57-.05.83,0,1.61,1.87,2.76,5.72,2.76,3.59,0,7.07-.57,9.62-1.3,1.09-.31,1.72-.05,1.87,1.09l.47,3.64c.16,1.3-.36,1.77-1.77,2.24-2.7.88-7.8,1.82-13.99,1.82-7.75,0-12.84-2.76-12.84-9.15Zm22-9.57c2.13-.52,3.59-1.14,3.59-2.76,0-1.25-1.14-2.18-3.02-2.18-3.64,0-7.59,3.07-9.36,6.24,2.96-.21,5.88-.57,8.79-1.3Z"/>
        <path class="cls-1" d="m112.59,75.35l3.85-7.7c1.35-2.76.83-4.16-1.3-4.16-5.04,0-11.8,6.4-15.65,14.04l-2.24,4.42c-.88,1.72-1.4,1.92-2.76,1.92h-7.07c-1.66,0-1.66-.99-.99-2.29l12.17-24.03c.78-1.56,1.4-1.98,2.76-1.98h6.5c1.35,0,1.82.78.99,2.34l-1.09,2.03h.16c3.8-2.6,8.27-5.04,13.83-5.04,4.68,0,7.75,2.29,7.75,6.24,0,1.46-.42,3.22-1.51,5.36l-4.68,9.31c-.88,1.77-.31,2.76,1.04,2.76,1.25,0,1.66.57,1.14,1.72l-.88,1.92c-.62,1.35-1.3,1.66-2.7,1.92-1.2.21-3.33.31-4.58.31-4.63,0-7.75-3.02-4.73-9.1Z"/>
        <path class="cls-1" d="m130.27,77.12c0-4.68,2.81-10.04,6.71-13.94,5.77-5.77,12.64-8.27,19.92-8.27,2.24,0,4.94.36,6.55.68l3.8-7.44c.88-1.72,1.35-1.92,2.7-1.92h7.07c.94,0,1.46.31,1.46.94,0,.36-.1.78-.42,1.35l-13.62,26.78c-.88,1.77-.31,2.76,1.04,2.76,1.25,0,1.66.57,1.14,1.72l-1.14,2.44c-.62,1.35-1.3,1.66-2.7,1.92-1.2.21-3.33.31-4.58.31-3.48,0-6.14-1.72-5.93-5.04h-.1c-3.85,3.33-8.74,5.15-13.47,5.15-5.98,0-8.42-3.28-8.42-7.44Zm27.98-11.23l1.77-3.43c-1.04-.21-2.18-.42-3.95-.42-4.37,0-7.59,1.77-9.78,3.95-1.92,1.92-4,5.1-4,7.59,0,1.72,1.2,2.5,2.86,2.5,4.78,0,10.71-5.56,13.1-10.19Z"/>
        <path class="cls-1" d="m172.23,75.35l9-17.84c.83-1.61,1.4-1.92,2.76-1.92h7.07c1.35,0,1.82.73.99,2.34l-8.79,17.37c-.88,1.77-.31,2.76,1.04,2.76,1.25,0,1.66.57,1.14,1.72l-1.14,2.44c-.62,1.35-1.3,1.66-2.7,1.92-1.2.21-3.33.31-4.58.31-4.63,0-7.85-3.02-4.78-9.1Zm12.53-24.44c0-2.76,2.81-5.46,6.81-5.46,2.91,0,4.42,1.4,4.42,3.33,0,2.76-2.81,5.46-6.81,5.46-2.91,0-4.42-1.4-4.42-3.33Z"/>
        <path class="cls-1" d="m220.39,56.63c1.3,0,1.61,1.04.99,2.29l-1.2,2.44c-.73,1.46-1.4,1.92-2.76,1.92h-7.18l-4.42,8.74c-2.03,4-.16,5.2,2.13,5.2,1.09,0,2.18-.21,3.12-.42,1.04-.26,1.72,0,1.87,1.14l.36,3.17c.16,1.2-.42,1.61-2.18,2.08-3.17.83-6.19,1.3-9.1,1.3-5.3,0-8.74-2.6-8.74-6.97,0-1.51.42-3.33,1.35-5.15l4.58-9.1h-3.59c-1.25,0-1.61-1.04-.99-2.29l1.2-2.44c.73-1.46,1.4-1.92,2.76-1.92h3.95l2.18-4.32c.57-1.14,1.25-1.72,2.76-1.92l7.33-.99c1.46-.21,2.24.52,1.35,2.24l-2.55,4.99h6.76Z"/>
      </g>
      <path class="cls-2" d="m220.29,98.02c-2.1,1.89-4.36,3.82-6.8,5.79-39.98,32.34-107.88,32.03-153.88,21.76-21.92-5.39-37.2-14.23-46.8-24.81,0,0,44.3,20.09,104.48,19.02s102.99-21.76,102.99-21.76Z"/>
    </g>
  </g>
</svg>