<?xml version="1.0" encoding="UTF-8"?>
<svg id="Layer_2" data-name="Layer 2" xmlns="http://www.w3.org/2000/svg" viewBox="0 0 511.93 716.08">
  <defs>
    <style>
      .cls-1 {
        fill: #180b0c;
      }

      .cls-2 {
        fill: #fdc929;
      }

      .cls-3 {
        fill: #e38f5b;
      }

      .cls-4 {
        fill: #f03838;
      }

      .cls-5 {
        fill: #2bbdfb;
      }
    </style>
  </defs>
  <g id="Layer_1-2" data-name="Layer 1">
    <g>
      <path class="cls-4" d="m307.37,107.42c1.26-3.6,2.17-7.38,3.85-10.77,3.21-6.52,7.16-12.68,10.25-19.24,4.01-8.51,10.31-12.07,19.55-10.61,1.3.21,2.64.2,3.96.29,6.26,6.48,12.43,13.05,18.82,19.4,2.04,2.03,4.66,3.47,7.01,5.18.24.07.4.23.47.47,2.12,2.2,4.24,4.41,6.36,6.61.29.03.52.16.69.4l.08.36s.36.07.36.07c.85.86,1.7,1.73,2.55,2.59,0,0,.08.34.08.34l.35.05c2.28,4.47,6.71,1.01,9.76,2.65.97,1.48,2.01,2.92,2.9,4.44,6.84,11.7,13.65,23.43,20.47,35.14-6.83,11.06-17.29,17.75-28.72,22.85-11.4,5.09-23.25,5.77-34.88.26-5.9-2.79-11.58-6.06-17.56-8.66-1.63-.71-4.94-.53-5.85.57-10.46,12.71-24.55,18.49-40.05,21.81-2.97-3.59-5.94-7.17-8.91-10.76.85-1.97,1.21-4.43,2.62-5.83,8.78-8.71,17.81-17.16,26.74-25.73,1.05-1.01,1.95-2.19,2.92-3.29,2.44-.13,4.18-1.01,4.07-3.84,9.19-6.35,20-6.95,30.51-8.63,3.98,4.87,7.54,10.17,12.02,14.52,7.5,7.28,16.68,9.78,26.95,6.89,1.41-.4,2.54-1.77,3.8-2.69-4.69-.52-8.61.86-12.29.37-10.47-1.39-18.94-6.57-24.03-16.05-4.3-8.01-7.97-16.35-12-24.5-.51-1.04-1.48-1.85-2.23-2.77-.41.82-.82,1.63-1.24,2.45-3.02,2.8-5.94,5.71-9.08,8.37-2.42,2.05-5.11,3.77-7.68,5.64-4.21-2.78-8.42-5.57-12.63-8.35Z"/>
      <path class="cls-2" d="m254.85,419.59c.49.1,1.11.04,1.44.32,8.86,7.64,18.11,1.92,27.15.68,10.58-1.44,21.05-3.73,31.66-4.84,11.23-1.18,17.38,4.16,19.93,15.37,2,8.8,4.27,17.55,6.77,26.21,2.25,7.8,2.22,8.33-4.89,11.78-4.43,1.97-8.86,3.95-13.29,5.92-5.85.92-8.53-1.69-9.87-7.42-1.2-5.16-3.81-10-5.8-14.98,2.59-2.17,5.18-4.33,7.78-6.5-.36-.52-.72-1.05-1.07-1.57-1.54.64-3.14,1.16-4.6,1.94-5.98,3.17-11.72,6.92-17.94,9.53-8.02,3.37-16.37,5.64-25.17,2.01-2.3-.95-5.04-.86-7.57-1.24-.16.63-.32,1.25-.48,1.88,2.71.95,5.37,2.55,8.13,2.72,6.66.41,13.37.16,20.06.17,6.61,7.61,14.8,14.37,19.46,23.04,7.36,13.69,12.36,28.65,18.35,43.07-2.21,1.77-4.11,3.29-6.02,4.82-3.93,2.27-7.86,4.54-11.8,6.81-4.77.67-7.77-1.36-9.83-5.7-4.93-10.42-10-20.79-15.34-31-1.01-1.93-3.39-3.29-5.38-4.54-13.38-8.37-27.78-15.42-38.67-27.14-4.86-5.23-8.39-11.76-12.02-17.99-.88-1.51.24-4.18.44-6.32,9.52-9,19.05-18.01,28.57-27.02Z"/>
      <path class="cls-4" d="m184.27,525.75c-1.33-10.43-2.72-20.86-3.95-31.31-.2-1.7.29-3.48.46-5.22,1.64.5,3.5.65,4.89,1.55,32.93,21.37,65.81,42.82,98.68,64.28,1.35.88,2.52,2.04,4.09,3.33-28.5,27.21-56.66,54.09-84.81,80.97-.55-.16-1.11-.31-1.66-.47-3.01-18.96-6.03-37.93-9.04-56.89,1.17-1.12,2.76-2.03,3.44-3.4,6.69-13.56,13.22-27.2,19.8-40.81.68-2.1,4.65-3.76.88-6.47-1.7-.17-3.41-.34-5.11-.51-.92,0-1.84-.02-2.75-.03-2.06.09-4.12.19-6.18.28-5.29-5.15-12.14-4.75-18.73-5.3Z"/>
      <path class="cls-5" d="m465.04,600.03c.35,1.58,1.25,3.27.97,4.73-1.68,8.8-2.91,17.78-5.69,26.24-2.97,9.01-9.42,15.13-19.57,16.08-.46.04-.92.3-1.34.55-.27.16-.46.47-.51.52,3.46,7.09,7.07,14.01,10.16,21.16.72,1.67-.34,4.11-.58,6.19-4.15,3.76-8.29,7.52-12.44,11.29-3.21,1.15-5.8.19-8.41-1.89-8.86-7.06-17.97-13.81-26.77-20.94-5.62-4.55-8.1-10.92-8.89-18,4.49-.02,8.99.08,13.48-.06,14.95-.47,27.24-6.47,36.56-18.17,1.62-2.04,2.24-4.87,3.33-7.33l-1.67-.86c-.9,1.23-1.64,2.64-2.73,3.67-4.9,4.63-9.32,10.14-14.99,13.51-13.49,8-28.35,5.66-42.99,3.8-1.2-.15-2.55.85-3.83,1.32-2.44,1.9-4.76,3.98-7.33,5.67-5.27,3.47-10.56,6.96-16.12,9.93-1.51.81-4-.22-6.05-.41-4.19-3.82-8.37-7.63-12.56-11.45.35-2.27-.05-5.11,1.17-6.73,5.84-7.78,11.94-15.39,18.3-22.76,5.06-5.86,11.64-9.39,19.41-10.36,10.58-1.32,21.15-2.89,31.77-3.69,4.48-.34,5.45-3.36,7.39-6.09,1.92-2.71,4.26-5.13,6.42-7.68.68.44,1.3,1.09,2.04,1.3,9.16,2.59,18.32,5.23,27.54,7.63,4.58,1.19,9.29,1.91,13.94,2.84Z"/>
      <path class="cls-4" d="m105.87,191.86c-1.64,1-3.28,2-4.92,2.99-1.26-1.1-3.52-2.12-3.62-3.31-.69-8.55-.94-17.14-1.33-25.72,8.09-5.44,16.23-10.82,24.26-16.34,10.52-7.23,20.95-14.59,31.43-21.87,1.62-1.12,3.32-2.12,4.98-3.18,5.41,4.83,10.81,9.66,16.21,14.5.11,1.64.8,3.52.23,4.86-1.74,4.04-3.43,8.31-6.14,11.68-4.87,6.07-2.28,11.78-.03,17.44,4.85,12.21,8.59,24.67,10.2,37.74-6.23,3.44-12.57,6.68-18.66,10.36-13.01,7.87-25.9,15.94-38.8,23.98-4.66,2.9-9.23,5.94-13.83,8.91-5.96,1.76-7.72.69-7.73-5.77-.01-6.37.71-12.74,1.12-19.12,5.24-.78,3.61-5.73,4.42-8.52,2.94-10.2,4.73-20.72,7.19-31.07,1.84-7.71,4.04-15.34,6.17-23.36-4.41-.39-4.13,3.02-4.83,5.14-2.24,6.84-4.23,13.76-6.32,20.64Z"/>
      <path class="cls-2" d="m285.77,190.85c6.74-.71,13.48-1.43,20.22-2.14,8.45,5.76,16.91,11.52,25.36,17.29-4.41,9.94-8.79,19.9-13.23,29.82-6.18,13.82-12.41,27.62-18.61,41.43-1.76,3.92-3.73,7.76-5.21,11.78-1.38,3.75-3.51,3.92-5.86,1.44-10.13-10.69-20.25-21.38-30.07-32.36-9.01-10.07-17.76-20.39-26.36-30.81-6.4-7.76-12.38-15.85-18.53-23.82-.88-1.14-1.62-2.38-3.13-4.62,11.44-2.07,22.11-3.09,32.85-3.57-.89,2.21-1.77,4.43-3.19,7.96,3.55-.51,5.45-.65,7.29-1.08,8.33-1.95,16.64-4.42,24.9.31.51.29,1.77.1,2.12-.32,1.83-2.23,3.47-4.61,5.18-6.94-.31-.16-.62-.33-.92-.49,2.4-1.3,4.8-2.59,7.2-3.89Z"/>
      <path class="cls-5" d="m478.08,400.34c6.68,1.48,13.36,2.97,20.04,4.44,3.56.79,7.15,1.49,10.7,2.34,3.32.8,4.06,2.67,1.85,5.4-7.61,9.4-15.27,18.76-22.85,28.19-1.64,2.03-2.81,4.45-4.55,6.38-3.16,3.5-6.59,6.77-9.91,10.14-3.07-1.26-6.08-3.36-9.23-3.61-7.14-.55-14.35-.17-22.65-.17,1.69,11.69,3.35,23.24,5.01,34.78.05.41.11.82.16,1.23,0,0,0-.02,0-.02.24.92.48,1.83.72,2.75-.21.29-.22.59-.01.9-2,2.64-3.86,5.39-6.02,7.88-2.45,2.82-4.83,3.44-6.39-.95-1.55-4.36-3.14-8.72-4.81-13.04-4.04-10.47-8.14-20.92-12.22-31.37-4.03-10.34-7.99-20.7-12.11-31-2.97-7.44-6.22-14.77-9.22-22.2-2.23-5.51-4.16-11.15-6.44-16.63-.9-2.17-1.04-3.47,1.7-3.73-.08,3.72,2.17,4.06,5.22,4.01,8.67-.15,17.45-1.33,25.34,4.34,1.85,1.33,5.82,2.03,7.78-1.58,9.91,2.39,19.81,4.78,29.72,7.17,2.89,6.03,12.19,8.26,18.19,4.35Z"/>
      <path class="cls-5" d="m105.85,253.91c4.61-2.98,9.18-6.01,13.83-8.91,12.91-8.04,25.79-16.11,38.8-23.98,6.08-3.68,12.43-6.92,18.66-10.36,3.19,1.52,6.41,3,9.58,4.57,3.67,1.81,7.12,4.29,10.97,5.44,19.19,5.75,21.31,10.7,23.19,25.96.9,7.31,1.3,14.69,2.22,22,.49,3.87-1.64,5.76-4.45,7.43-4.57,2.17-9.13,4.33-13.7,6.5-3.34,1.3-6.96,2.16-9.97,4.01-4.06,2.49-5.27.16-5.7-2.92-1.27-8.88-2.2-17.81-3.27-26.72.62-.77,1.24-1.53,1.86-2.3-.08-.44-.15-.88-.23-1.32-17.48,3.8-32.91-1.4-47.4-10.73l-.84,1.66c2.9,2.21,5.79,4.42,8.69,6.63.32,6.79.26,13.63,1.06,20.37,1.09,9.21-2.12,17.28-5.51,25.43-1.96,4.72-3.77,9.5-5.57,14.28-1.81,4.81-4.44,5.93-9.16,3.89-2.37-1.03-4.83-1.87-7.24-2.79-5.36-1.43-10.72-2.85-16.09-4.28-5.75-2.88-4.99-6.89-2.42-11.68,2.93-5.47,5.67-11.08,7.89-16.87,1-2.63,1.28-6.02.57-8.72-1.47-5.65-3.8-11.08-5.78-16.6Z"/>
      <path class="cls-4" d="m195.88,16.8c12.43,4.95,21.58,12.85,24.28,26.69.3,1.55,1.35,2.95,2.05,4.42-.37,1.42-.98,2.83-1.06,4.27-.43,8.25-3.06,15.66-8.18,22.13-9.23,11.67-29.59,19.27-44.72,10.6,2.43-5.14.76-9.3-3.87-11.76-4.81-2.56-10.07-4.26-15.14-6.33-.03-.72-.05-1.44-.08-2.16.3-1.29.9-2.61.83-3.88-.1-1.75-.9-3.46-1.09-5.22-.93-8.61,1.74-16.27,6.29-23.45.51-.81.31-2.07.44-3.11,5.82-6.55,12.55-11.52,21.61-12.45,6.21.08,12.43.17,18.64.25Z"/>
      <path class="cls-4" d="m302.11,399.07c-1.67,4.01-5.42,3.49-8.66,3.81-20.27,2.01-38.35-11.7-43.98-28.51-.09-.25-.51-.39-.77-.59,3.43-12.01,11.3-21.23,19.28-30.34,1.12-1.28,2.95-2.01,4.54-2.81,4.72-2.4,9.91-4.16,14.06-7.3,2.05-1.55,3.21-5.77,2.79-8.47-.23-1.5-4.45-2.87-7.05-3.41-6.73-1.4-11.04,2.82-15.25,7.22-6.04,6.31-12.25,12.46-18.38,18.68,2.44-18.16,23.21-36.11,41.36-36.58,11.67-.3,22.51,1,31.81,8.81,9.79,8.23,14.74,18.61,15.31,31.43.52,11.78-2.21,22.45-9.13,31.97-1.2,1.65-3.11,2.78-4.7,4.15.93-2.91,2.3-5.76,2.72-8.75,1.65-11.9-2.14-21.56-12.45-28.26-.45-.3-.89-.61-1.34-.91-.89-.34-1.77-.68-2.66-1.02-.77-.35-1.53-.7-2.3-1.05-.86-.13-1.71-.25-2.57-.38-.46-.03-.91-.07-1.37-.1-2.19.02-4.38.03-6.57.05l-4.55,1.1s-.34.2-.34.2c-5.61.66-9.36,3.73-11.53,8.86-1.22,3.13-2.45,6.26-3.67,9.39-.1.83-.19,1.67-.29,2.5.02,2.07.03,4.14.05,6.21-.05.58-.1,1.16-.15,1.73,0,.78,0,1.55,0,2.33-1.93,3.61.38,4.56,3.24,5.16.28.61.56,1.22.85,1.83l.03.43.41.15c.27.34.54.68.81,1.03.15.28.3.56.46.84.76.84,1.52,1.68,2.28,2.53l.68.55c.23,0,.35.13.36.36.2.21.4.42.59.63.23.02.38.14.43.37.26.17.52.34.78.51,0,0,.33.29.33.29.81.62,1.62,1.24,2.43,1.86.18.09.32.22.4.4.24.45.47.9.71,1.35.28-.27.55-.55.83-.82l3.43,1.61.13.35.25-.24c2.13.29,4.26.58,6.39.87Z"/>
      <path class="cls-5" d="m380.95,215c3.87.96,7.76,1.85,11.61,2.9,7.6,2.06,15.1,1.27,22.15-1.74,10.36-4.42,21.03-6.94,31.91-3.75,6.45,1.89,12.24,6.01,18.32,9.12-.27,8.48-.53,16.96-.79,25.44-1.76.33-3.52.67-5.28,1-4.26-7.15-8.48-14.31-12.82-21.41-.72-1.17-1.94-2.03-2.93-3.03-.51.41-1.01.82-1.52,1.23,3.64,6.7,7.44,13.32,10.88,20.12,2.76,5.47,5.08,11.17,7.6,16.76-6.76,1.1-13.52,2.19-20.27,3.29-7.13.75-14.26,1.5-21.38,2.26l-3.55.13c-3.32.13-6.65.26-9.97.39-3.06-6.64-6.1-13.28-9.18-19.91-.35-.74-.88-1.4-1.33-2.09,6.52-.23,13.04-.46,19.56-.69.04-.64.09-1.27.13-1.91-15.91-.25-31.25-2.45-44.35-12.25,3.74-5.29,7.47-10.58,11.21-15.87Z"/>
      <path class="cls-2" d="m119.37,561.8c6.67,7.3,13.2,14.74,20.1,21.82,2.64,2.71,4.33,5.35,3.65,9.17-8.38,6.02-16.75,12.03-25.13,18.05-1.29.29-2.58.58-3.88.88-2.36-1.97-4.58-4.15-7.11-5.87-11.46-7.79-22.55-15.91-29.15-28.65-1.02-1.98-2.37-3.78-3.57-5.67-.45.27-.89.53-1.34.8.85,6.47,4.52,11.58,8.58,16.5,2.19,2.65,4.39,5.29,6.58,7.93-2.53,4.29-5.2,8.5-7.55,12.88-1.64,3.06-3.42,5.61-7.35,5.4-2.61-1.74-5.2-3.5-7.82-5.21-6.07-3.98-12.15-7.94-18.23-11.91-5.95-6.38-1.5-12.54.85-18.38,2.57-6.4,6.16-12.39,9.3-18.56,3.24-.37,6.54-1.34,9.7-.99,10.05,1.1,20.01,2.92,30.06,4.01,7.52.82,15.33,3.11,22.3-2.2Z"/>
      <path class="cls-4" d="m414.88,267.33c1.18-.04,2.37-.09,3.54-.13,6.64-.18,13.29-.33,19.94-.62.51-.02.97-1.07,1.45-1.63,6.76-1.1,13.52-2.19,20.27-3.29.66.16,1.33.32,1.99.49,4.96,9.05,6.54,18.97,6.87,29.06.2,6.04-.25,12.15-1.02,18.15-.26,2.01-2.41,3.78-3.7,5.66-1.64,0-3.28-.07-4.92.03-9.97.57-19.94,1.17-29.91,1.76-.88-1.22-1.76-2.44-2.65-3.66,4.43-4.24,9.19-8.19,13.2-12.8,5.6-6.45,7.5-14.14,5.07-22.79-1.08,1.17-1.91,2.54-1.89,3.9.15,7.38-2.47,13.8-7.67,18.68-5.4,5.08-11.58,9.31-17.42,13.92-2.92-3.19-5.86-6.37-8.76-9.58-1.05-1.17-1.8-2.75-3.06-3.58-5.69-3.79-11.51-7.39-17.28-11.05,4.22-6.15,8.44-12.29,12.65-18.44.42-.52.85-1.05,1.27-1.57,0,0,.08-.1.08-.1,3.97-.8,7.94-1.59,11.92-2.39Z"/>
      <path class="cls-2" d="m113.04,358.33c-2.96,5.85-8.85,6-14.05,6.48-10.12.94-19.78-.72-29.5-4.54-12.13-4.77-23.33-11.18-33.12-19.2-15.61-12.8-27.57-28.62-30.21-49.69-.14-1.15-.12-2.33-.12-3.49,0-3.71,1.34-4.65,4.51-2.26,11.47,8.63,22.82,17.44,34.53,25.75,13.45,9.54,27.23,18.61,40.87,27.89.41.64.68,1.5,1.26,1.89,8.58,5.76,17.21,11.46,25.83,17.17Z"/>
      <path class="cls-5" d="m119.37,561.8c-6.97,5.31-14.79,3.02-22.3,2.2-10.05-1.09-20.01-2.91-30.06-4.01-3.16-.35-6.47.62-9.7.99-.07-2.44-1.01-5.32-.05-7.25,4.03-8.1,8.64-15.92,13.03-23.84,13.89-8.89,23-21.85,30.74-35.99,6.9.07,10.56,5.8,15.65,9.01,2.82,1.78,6.02,3.56,5.69,7.77-2.12,7.48-4.89,14.86-6.07,22.48-.58,3.75,1.78,7.96,2.81,11.96.66,4.17,1.52,8.32,1.89,12.52.12,1.33-1.05,2.78-1.63,4.17Z"/>
      <path class="cls-5" d="m436.94,16.72c7.84-4.91,15.68-9.81,23.51-14.72,4.84-3.04,5.62-2.91,8.05,2.47,8.39,18.6,11.2,38.1,9.17,58.35-.58-.31-1.13-.71-1.74-.93-12.46-4.59-20.7-2.79-20.6,13.36.01,2.32,2.07,6.27,3.81,6.66,6.81,1.53,6.11,6.16,5.75,10.97-1.61,1.4-3.21,2.8-4.82,4.2-.67-1.19-1.44-2.33-2.01-3.56-2.26-4.9-3.14-10.74-9.11-13.05-4.35-6.87-9.71-13.32-12.81-20.72-4.34-10.38-6.78-21.53-10.51-32.19-1.08-3.07.06-4.38,2.06-5.63,2.99-1.87,6.15-3.49,9.24-5.21Z"/>
      <path class="cls-4" d="m48.07,422.77c23.69-15.14,47.39-30.26,71.04-45.45,1.91-1.23,3.47-3,5.19-4.52,3.29,5.32,6.58,10.65,9.87,15.97-1.41,1.3-3,2.45-4.21,3.92-19.19,23.2-41.36,42.84-68.01,57.15-3.61-4.51-7.91-8.64-10.61-13.64-2.12-3.92-2.25-8.9-3.26-13.42Z"/>
      <path class="cls-4" d="m391.99,570.84c-.62,4.31-1.22,8.62-1.86,12.92-.34,2.26-.39,4.65-1.25,6.7-.41.98-2.65,2.11-3.63,1.8-17.18-5.36-34.29-10.94-51.43-16.44-5.16-1.66-10.4-3.09-15.52-4.9-2.17-.76-4.09-2.22-6.12-3.35,1.35-1.71,2.66-3.46,4.09-5.1.53-.6,1.37-.92,2.07-1.36,4.39,5.47,9.68,5.9,11.53.63,2.94-8.39,8.14-14.36,15.94-18.55,1.74-.94,2.33-4.03,3.44-6.14,1.62-1.05,3.25-2.1,4.87-3.15l-.07.06c3.99-.03,7.99-.05,11.98-.08,3.23,2.42,7.12,4.33,9.51,7.4,2.88,3.69,4.35,8.44,6.66,12.61,3.15,5.71,6.51,11.31,9.79,16.95Z"/>
      <path class="cls-2" d="m422.52,585.48c-3.81-2.97-.54-6.97-1.5-10.35,11.37-4.41,15.82-10.85,14.97-22.27-.2-2.75-1.34-5.43-2.05-8.14,2.8-3.13,5.51-6.36,8.45-9.36,1.69-1.72,3.76-3.06,5.65-4.58l-.06.06c4.28-.96,8.57-1.92,12.86-2.88,3.84,7.42,7.68,14.84,11.52,22.26.64,4.28,1.52,8.55,1.86,12.85.5,6.24.86,12.52.68,18.77-.04,1.4-2.43,2.9-3.98,4.03-.98.71-2.4.81-3.63,1.19-1.71-.4-3.41-1.12-5.13-1.14-9.8-.12-19.61-.05-29.41-.11-3.41-.02-6.82-.22-10.23-.33Z"/>
      <path class="cls-2" d="m448.96,80.46c5.97,2.31,6.85,8.16,9.11,13.05.57,1.23,1.33,2.38,2.01,3.56-.65,3.32-.48,7.14-2.13,9.85-2.85,4.67-6.23,9.42-10.48,12.76-7.74,6.07-16.27,11.13-24.47,16.61-10.23-8.2-15.12-20.16-22.13-30.57,1.99-1.78,3.52-3.31,5.2-4.64,4.41-3.49,8.95-6.84,13.29-10.41.78-.64.87-2.12,1.28-3.21-1.14.23-2.46.17-3.39.74-1.82,1.11-3.43,2.57-5.12,3.89-5.94-1.35-6.42-2.53-4.18-10.43,3.71-3.97,7.42-7.94,11.13-11.91.75.3,1.5.61,2.24.91,1.49.95,3.43,1.57,4.4,2.9,3.21,4.41,6.07,9.07,9.24,13.9-1.8,1.25-3.58,2.19-4.97,3.54-.92.89-2.14,2.86-1.77,3.47,2.61,4.38,5.6,8.53,8.47,12.76.71-.46,1.41-.92,2.12-1.37-2.31-3.71-4.62-7.43-6.99-11.24,5.84-4.83,11.49-9.49,17.13-14.15Z"/>
      <path class="cls-4" d="m203.24,385.91c3.65-.96,7.3-1.91,10.95-2.87,1.46,8.99,11.25,14.46,20.14,10.96,4.34,4.86,8.8,9.62,12.94,14.64,1.48,1.79,2.18,4.22,3.24,6.36-5.1,4.89-10.3,9.69-15.28,14.7-3.82,3.84-7.38,7.95-11.06,11.94-1.6,1.06-3.43,1.9-4.75,3.23-3.02,3.05-5.72,2.73-7.69-.77-4.22-7.51-8.14-15.19-12.18-22.8-.64-1.25-1.28-2.51-1.93-3.76-1.71-7.81-3.41-15.61-5.12-23.42,3.58-2.74,7.15-5.48,10.73-8.22Z"/>
      <path class="cls-5" d="m381.33,102.18c-.85-.86-1.7-1.73-2.55-2.59,0,0-.04-.41-.04-.41l-.41-.03c-.17-.24-.4-.37-.69-.4-2.12-2.2-4.24-4.41-6.37-6.62-.07-.24-.22-.4-.47-.47-.5-.95-.8-2.1-1.54-2.81-7.67-7.39-15.41-14.71-23.13-22.05,5.19-2.59,10.49-4.97,15.54-7.8,10.21-5.74,20.22-11.83,30.44-17.55,2.33-1.3,5.19-1.65,7.8-2.44-.27,2.72-.29,5.49-.87,8.14-2.32,10.59-4.06,21.01,4.25,30.1,1.2,1.31,2.12,2.87,3.17,4.32-4.11,4.42-3.3,8.23,1.43,11.56.25.18.39.52.58.79-4.4,5.66-9.5,10.24-16.96,11.29-3.05-1.64-7.48,1.82-9.76-2.64,0,0-.05-.39-.05-.39,0,0-.39,0-.39,0Z"/>
      <path class="cls-3" d="m48.07,422.77c1.01,4.51,1.15,9.5,3.26,13.42,2.7,5,7,9.13,10.61,13.64,2.88,3.98,5.41,8.28,8.7,11.88,9.97,10.88,20.23,21.48,30.38,32.19-7.73,14.14-16.85,27.11-30.74,35.99,1.02-5.49,1.86-11.02,3.1-16.46.9-3.9.53-7.17-1.42-10.87-4.46-8.47-7.85-17.5-12.37-25.94-3.72-6.95-8.44-13.38-12.72-20.04-4.65-7.94-9.3-15.87-13.96-23.81.15-5.9,3.66-9.6,9.86-10.32,1.77-.2,3.73-3.06,5.29.32Z"/>
      <path class="cls-5" d="m276.31,379.04c0-.78,0-1.55,0-2.32.05-.58.1-1.16.15-1.74-.02-2.07-.03-4.14-.05-6.2.1-.83.19-1.67.29-2.51,1.22-3.13,2.45-6.26,3.67-9.39,3.84-2.95,7.69-5.91,11.53-8.87,0,0,.34-.2.34-.2,1.52-.37,3.03-.73,4.55-1.1,2.19-.02,4.38-.03,6.57-.05.45.03.91.07,1.37.1.86.13,1.71.25,2.56.38.76.35,1.53.7,2.3,1.05.89.34,1.77.68,2.66,1.01.44.3.89.61,1.34.91,10.31,6.71,14.1,16.37,12.45,28.26-.41,2.98-1.79,5.84-2.72,8.75-5.48,6.81-12.44,10.98-21.21,11.94-2.13-.29-4.26-.58-6.39-.87,0,0-.38-.11-.38-.11-1.14-.54-2.28-1.07-3.42-1.61-.51-.18-1.02-.35-1.53-.53-.09-.18-.22-.31-.4-.4-.81-.62-1.62-1.24-2.44-1.86,0,0-.33-.29-.33-.28-.26-.17-.52-.34-.78-.51-.05-.23-.2-.35-.43-.37-.2-.21-.4-.42-.6-.64,0-.23-.13-.35-.35-.35-.23-.18-.45-.37-.68-.55-.76-.84-1.52-1.68-2.28-2.52-.15-.28-.31-.56-.46-.84-.27-.34-.54-.68-.8-1.02-.14-.19-.29-.39-.44-.58-.28-.61-.56-1.22-.85-1.82-1.08-1.72-2.16-3.44-3.24-5.16Z"/>
      <path class="cls-3" d="m388.96,289.83c5.77,3.67,11.59,7.26,17.28,11.05,1.26.84,2,2.41,3.06,3.58,2.9,3.21,5.83,6.39,8.76,9.58.05.58.09,1.15.13,1.73-3.83,2.52-7.67,5.05-11.75,7.74,12.16,14.3,15.49,31.9,19.71,49.14-1.04,2.13-2.08,4.26-3.19,6.53-2.97-2.74-5.51-5.09-8.05-7.43-5.06-6.52-10.06-13.09-15.18-19.56-6.28-7.93-12.65-15.78-19-23.66-5.69-7.07-6.66-14.88-2.43-22.76,3.01-5.61,7.07-10.65,10.66-15.95Z"/>
      <path class="cls-3" d="m119.11,545.12c-1.03-4-3.4-8.21-2.81-11.96,1.18-7.62,3.95-15,6.07-22.48,6,4.03,12.31,7.67,17.9,12.2,5.53,4.48,10.25,9.94,15.49,14.79,1.02.95,2.82,1.6,4.2,1.51,3.13-.2,6.23-.96,9.34-1.49.26-.25.53-.51.8-.77,0,0,.01.02.01.01,3.74-.35,7.49-.7,11.23-1.05,4.06-.38,4.47-2.59,2.93-5.79,0-1.45,0-2.9,0-4.34,6.59.55,13.44.15,18.73,5.3-.35,1.25-.74,2.5-1.04,3.77-1.38,5.75-4.65,10.18-9.85,12.87-4.67,2.41-9.6,4.32-14.41,6.45-7.35,1.91-14.65,4.02-22.06,5.66-7.07,1.57-12.41-2.64-17.56-6.43-5.3-3.9-10.17-8.41-15.24-12.66-1.24,1.46-2.48,2.93-3.73,4.4Z"/>
      <path class="cls-1" d="m406.48,81.56c-1.05-1.44-1.97-3.01-3.17-4.32-8.31-9.08-6.56-19.51-4.25-30.1.58-2.65.59-5.42.87-8.14.77-1.8,1.78-3.53,2.27-5.4,1.29-4.89,4.2-7.94,8.97-9.78,2.29-.88,4.36-2.92,5.95-4.9,4.2-5.22,15.38-6.62,19.81-2.22-3.09,1.72-6.24,3.34-9.24,5.21-2,1.25-3.13,2.56-2.06,5.63,3.73,10.65,6.17,21.81,10.51,32.19,3.09,7.4,8.46,13.84,12.81,20.72-5.65,4.66-11.29,9.33-17.13,14.15,2.37,3.81,4.68,7.53,6.99,11.24-.71.46-1.41.92-2.12,1.37-2.87-4.23-5.86-8.38-8.47-12.76-.37-.62.85-2.58,1.77-3.47,1.39-1.35,3.17-2.29,4.97-3.54-3.17-4.83-6.03-9.49-9.24-13.9-.97-1.33-2.91-1.95-4.4-2.9-.24-1.84.06-4.01-.81-5.47-2.84-4.74-3.29-9.68-3.24-15.09.06-6.68-1-13.36-1.58-20.07-3.97-.34-4.24,2.19-4.3,4.8-.16,6.99.24,14.05-.55,20.96-.82,7.13,1.12,11.88,8.24,13.96-3.71,3.97-7.42,7.94-11.13,11.91-.49-.03-.98-.06-1.46-.1Z"/>
      <path class="cls-3" d="m429.4,316.79c9.97-.59,19.94-1.2,29.91-1.76,1.63-.09,3.28-.02,4.92-.03-1.17,4.78-2.46,9.54-3.42,14.37-.23,1.14.46,2.65,1.12,3.74,2.76,4.48,5.87,8.76,8.49,13.32,4.86,8.45,9.45,17.06,14.23,25.56.45.81,1.48,1.29,2.24,1.93.12.34.24.69.36,1.03-.24,2.47-.47,4.94-.75,7.86-2.89-.63-5.72-1.24-8.54-1.86-1.25-.8-2.58-1.49-3.73-2.41-8.74-7.03-17.74-13.78-26.07-21.28-5.09-4.58-10.65-9.66-13.26-15.7-3.29-7.62-3.8-16.45-5.51-24.76Z"/>
      <path class="cls-3" d="m117.99,610.84c8.38-6.02,16.75-12.03,25.13-18.05,10.93,7.81,12.11,20.15,15.05,31.79,3.34,13.2,7.21,26.26,10.85,39.38.07.23.08.47,0,.7-1.07,2.37-2.14,4.73-3.18,7.02-1.92-1.09-3.47-1.96-5.02-2.83-.89-.37-1.78-.74-2.68-1.11-3.04-4.47-5.78-9.18-9.21-13.33-4.13-4.99-8.98-9.37-13.26-14.25-5.58-6.37-9.35-13.61-9.7-22.35-.05-1.19-1.01-2.67-2-3.43-1.82-1.4-3.98-2.37-5.99-3.53Z"/>
      <path class="cls-1" d="m192.51,394.13c1.71,7.81,3.41,15.61,5.12,23.42-11.95.38-23.89.85-35.84,1.09-6.29.12-12.24-.87-15.98-6.94-.41-.66-1.65-.81-2.51-1.2-1.8-4.51-3.56-9.04-5.43-13.53-1.15-2.77-2.46-5.48-3.7-8.21-3.29-5.32-6.58-10.65-9.87-15.97.06-6.13,9.41-11.98,15.54-9.72.58,4.02,1.17,8.04,1.75,12.06,4.12,5.33,8.24,10.67,12.36,16,2.96,7.96,7.39,10.63,15.1,8.82,7.84-1.84,15.64-3.87,23.45-5.82Z"/>
      <path class="cls-3" d="m472.35,550.21c-3.84-7.42-7.68-14.84-11.52-22.26,4.57-5.04,9.32-9.94,13.61-15.21,1.17-1.44,1.73-4.15,1.3-5.98-2.04-8.68-4.51-17.25-6.83-25.85-.42-2.37-.24-5.1-1.38-7.04-2.62-4.45-6.17-8.35-8.82-12.79-1.75-2.94-3.87-4.59-7.17-5.05-2.09-.29-4.14-.85-6.88-1.43.26,5.58.49,11.01.78,16.44.31,5.74.69,11.47,1.04,17.2-1.66-11.54-3.33-23.09-5.01-34.78,8.3,0,15.51-.37,22.65.17,3.15.24,6.16,2.35,9.23,3.61-.36,1.19-.71,2.37-1.07,3.55-.93,5.34.07,9.95,4.89,13.15,4.3,7.5,9.41,14.65,12.71,22.57,6.34,15.17,5.29,29.85-6.33,42.57-3.55,3.88-7.46,7.43-11.2,11.13Z"/>
      <path class="cls-5" d="m149.17,64.66c.03.72.05,1.44.08,2.16.33,3.07-.49,7.25,1.2,9,7,7.23,8.55,15.63,7.4,25.04-11.77-2.75-27.02-16.24-27.94-30.7-.21-3.38-1.78-6.7-1.83-10.07-.26-17.6,7.52-31.08,22.08-40.56,10.76-7.01,22.63-9.18,35.29-6.52,1.45.3,2.98.27,4.46.38-1.62.51-3.21,1.13-4.85,1.53-2.59.62-5.21,1.09-7.82,1.63-9.06.93-15.79,5.9-21.61,12.45-8.9,9.37-11.67,24.62-6.47,35.66Z"/>
      <path class="cls-1" d="m234.34,394c-8.89,3.5-18.69-1.97-20.14-10.96,6.44-7.12,12.75-14.37,19.39-21.31,3.54-3.71,7.69-6.83,11.48-10.31,1.33-1.22,2.42-2.71,3.61-4.07,6.13-6.22,12.34-12.37,18.38-18.68,4.21-4.39,8.52-8.62,15.25-7.22,2.6.54,6.82,1.91,7.05,3.41.42,2.7-.75,6.91-2.79,8.47-4.15,3.15-9.34,4.9-14.06,7.3-1.59.81-3.42,1.53-4.54,2.81-7.98,9.11-15.85,18.32-19.28,30.34-4.79,6.74-9.57,13.48-14.35,20.21Z"/>
      <path class="cls-5" d="m143.3,410.5c.86.39,2.1.54,2.51,1.2,3.74,6.07,9.7,7.06,15.98,6.94,11.95-.24,23.89-.71,35.84-1.09.64,1.25,1.28,2.51,1.92,3.76-4.87,6.94-9.37,14.18-14.69,20.75-5.42,6.7-12.38,11.25-21.6,10.84-5.81-.26-13.9-5.86-15.02-11.5-2.03-10.22-3.33-20.58-4.94-30.89Z"/>
      <path class="cls-3" d="m464.16,246.97c.26-8.48.52-16.96.79-25.44,1.47.54,2.93,1.06,4.38,1.59,1.94-4.51.48-7.27-3.06-9.26,1.57-.68,4.52-1.39,4.51-2.04-.13-8.32,3.18-16.44.72-24.98-1.15-3.99-2.41-6.24-6.6-6.27,2.59-.98,5.85-1.29,7.63-3.08,3.48-3.51,6.95-2.09,10.41-1.03,1.6.49,2.82,2.18,4.22,3.32-.64.64-1.88,1.34-1.83,1.92.81,10.05,1.78,20.08,2.72,30.12.19,4.79.36,9.57.56,14.36.16,3.82.55,7.63.51,11.45-.14,11.45-3.71,12.66-15.4,11.97-3.23-.19-6.37-1.72-9.55-2.63Z"/>
      <path class="cls-3" d="m433.94,544.71c.71,2.71,1.85,5.39,2.05,8.14.84,11.42-3.61,17.86-14.97,22.27-6.9.28-13.83,1.09-20.67.6-2.89-.21-5.58-3.17-8.36-4.88-3.27-5.65-6.63-11.24-9.79-16.95-2.3-4.17-3.78-8.92-6.66-12.61-2.39-3.07-6.28-4.98-9.51-7.4.45-.85.69-2.05,1.4-2.5,4.6-2.93,15.73,1.17,17.74,6.44.56,5.44,4.55,7.85,8.84,10,2.9,3.07,5.69,6.25,8.78,9.12.58.54,2.43.15,3.49-.3,9.25-3.92,18.45-7.94,27.66-11.94Z"/>
      <path class="cls-3" d="m380.95,215c-3.74,5.29-7.47,10.58-11.21,15.87-.65.07-1.3.13-1.95.2-10.17-7.18-20.32-14.39-30.53-21.53-1.88-1.32-3.95-2.37-5.93-3.54-8.45-5.76-16.91-11.52-25.36-17.29,2.81-4.55,7.02-7.23,12.22-6.57,3.75.48,7.3,2.62,10.93,4.02,2.57,2.26,5.14,4.52,7.72,6.78,5.34,2.88,10.57,5.98,16.04,8.59,7.76,3.7,15.71,7,23.53,10.57,1.61.74,3.02,1.93,4.52,2.91Z"/>
      <path class="cls-3" d="m47.16,597.92c6.08,3.97,12.16,7.93,18.23,11.91,2.62,1.72,5.21,3.47,7.82,5.21-1.74,1.93-3.23,4.17-5.25,5.73-12.36,9.52-24.85,18.89-37.25,28.35-.44.34-.51,1.16-.76,1.76-2.8-.56-5.61-1.12-8.38-1.67.47-1.95.86-3.6,1.26-5.25.14-1.38.27-2.77.41-4.15,1.24-1.98,2.68-3.86,3.68-5.95,3.2-6.73,5.92-13.69,9.45-20.24,1.76-3.27,4.52-6.22,7.44-8.57,2.52-2.02,3.55-4.14,3.36-7.13Z"/>
      <path class="cls-5" d="m365.6,477.94c1.22-.73,2.37-1.59,3.66-2.16,3.24-1.45,4.36-.11,3.34,3.01-2.38,7.29-5.03,14.5-7.4,21.8-3.03,9.31-5.85,18.69-8.84,28.02-.59,1.84-1.53,3.58-2.3,5.36,0,0,.07-.06.07-.06-1.25-.76-2.82-1.25-3.69-2.32-8.36-10.23-16.61-20.56-25.25-31.31,2.13-1.31,3.49-2.14,4.84-2.97,5.79,6.88,9.38,7.58,13.1,1.7,4.45-7.03,10.12-11.81,18.25-13.8,3.64-.89,5.73-3.15,4.22-7.26Z"/>
      <path class="cls-3" d="m95.99,165.83c.39,8.58.64,17.16,1.33,25.72.1,1.19,2.36,2.21,3.62,3.31-3.32.87-6.61,1.92-9.98,2.58-4.28.83-7.86-.6-9.12-4.94-1.04-3.6-1.41-7.47-1.6-11.24-.31-6.14-.23-12.29-.31-18.44.2-1.3.39-2.6.59-3.91.54-1.4,1.51-2.79,1.54-4.2.16-6.42.12-12.84,0-19.26-.02-1.18-.72-2.34-1.1-3.51-2.32-3.27-4.64-6.54-6.97-9.8-.13-3.98,2.21-5.19,5.7-5.06,6.16.23,10.54,2.88,12.2,9.14,0,3.27,0,6.54.01,9.81-.14,6.22-.44,12.44-.32,18.66.05,2.41.85,4.87,1.69,7.17.54,1.46,1.78,2.67,2.7,3.99Z"/>
      <path class="cls-4" d="m33.06,672.08c.52.91.85,2.02,1.59,2.69,4.26,3.86,5.31,8.79,4.25,14.07-.37,1.82-2.09,4.3-3.7,4.77-8.95,2.62-18.14,3.92-27.24.84-7.01-2.37-9.75-8.03-6.75-14.84,3.59-8.15,7.84-16.07,15.9-20.95,3.28,2.17,6.76,4.11,9.79,6.59,2.35,1.92,4.14,4.53,6.18,6.83Z"/>
      <path class="cls-3" d="m157.85,100.86c1.15-9.41-.4-17.81-7.4-25.04-1.69-1.75-.87-5.94-1.2-9,5.07,2.07,10.33,3.77,15.14,6.33,4.63,2.46,6.29,6.62,3.87,11.76-.06.43-.11.85-.17,1.28-.14.02-.29.03-.43.05.13.18.26.36.39.53.02.62.04,1.25.06,1.87.3.79.59,1.58.89,2.38.07.44.13.88.2,1.32-.13,3.8-1.09,7.81,2.75,10.57.1.25.15.5.14.76,1.62,6.21,3.15,12.44,4.87,18.61,1.77,6.36-.24,11.71-4.09,16.65-5.4-4.83-10.81-9.66-16.21-14.5.39-7.86.79-15.72,1.19-23.58Z"/>
      <path class="cls-5" d="m74.02,122.13c2.32,3.27,4.64,6.54,6.97,9.8-.15,8.99-.3,17.99-.45,26.98-.2,1.3-.39,2.6-.59,3.91-3.6,3.89-7.91,2.01-11.36.49-10.78-4.75-15.2-13.12-13.45-24.89,1.05-7.01,10.18-17.17,18.88-16.29Z"/>
      <path class="cls-2" d="m177.7,554.14c4.81-2.13,9.74-4.04,14.41-6.45,5.2-2.69,8.47-7.12,9.85-12.87.3-1.27.69-2.51,1.04-3.77,2.06-.09,4.12-.19,6.17-.28.92,0,1.84.02,2.76.03,1.7.17,3.41.34,5.11.5-.29,2.15-.58,4.31-.88,6.47-6.58,13.61-13.11,27.25-19.8,40.81-.67,1.37-2.27,2.28-3.44,3.4-2.59-3.94-5.46-7.73-7.69-11.86-2.79-5.18-5.05-10.64-7.54-15.98Z"/>
      <path class="cls-1" d="m464.89,92.88c.35-4.81,1.05-9.44-5.75-10.97-1.74-.39-3.79-4.34-3.81-6.66-.1-16.15,8.14-17.95,20.6-13.36.61.22,1.16.62,1.74.93,4.94,6.74,4.82,13.46,2.1,21.41-1.72,5.03.14,11.3.46,17.01.22,3.92.76,7.84.72,11.76-.01,1.11-1.59,2.2-2.45,3.31-.39-.27-.78-.54-1.16-.81-1.15-9.47-2.3-18.94-3.46-28.41-.72.03-1.44.06-2.17.09-1.21,6.96-2.6,13.89-3.55,20.89-.51,3.76-.15,7.64-.46,11.44-.06.78-1.66,2.21-2.01,2.06-1.03-.44-2.54-1.54-2.52-2.34.17-6.23.63-12.46,1.05-18.68.17-2.56.45-5.11.68-7.67Z"/>
      <path class="cls-2" d="m294.43,141.82c-1.23.71-2.39,1.82-3.7,2.05-4.68.84-9.39,1.7-14.13,1.97-7.73.45-12.44-3.52-13.19-12.74-.55-6.75.15-13.85,1.73-20.45,1.96-8.25,5.38-8.65,11.38-2.39.28.29.91.26,1.38.38,1.08,1.61,2.08,3.27,3.24,4.81,4.48,5.91,10.72,10.75,10.14,19.5-.15,2.21,2.04,4.57,3.15,6.86Z"/>
      <path class="cls-5" d="m168.11,88.64c-.02-.62-.04-1.25-.06-1.87.13-.19.14-.38.03-.59.06-.43.11-.85.17-1.28,15.13,8.67,35.49,1.07,44.72-10.6,5.12-6.48,7.75-13.89,8.18-22.13.07-1.44.69-2.85,1.06-4.27,3.59,8.62,1.82,16.89-1.4,25.19-7.22,18.68-22.07,27.53-40.56,31.54-2.53.55-5.43-.6-8.16-.96,0-.27-.04-.52-.14-.77-.92-3.52-1.83-7.05-2.75-10.57-.07-.44-.13-.88-.2-1.32-.3-.79-.59-1.58-.89-2.37Z"/>
      <path class="cls-1" d="m171.88,379.91c-1.65-5.15-4.08-10.06-1.92-15.83,2-5.36,5.96-8.06,11.53-7.13,1.14.19,2.81,0,3.55-.71,4.27-4.15,9.26-3,13.69-1.3,2.55.98,5.81,4.1,5.99,6.46.48,6.32,1.55,13.65-6.83,16.64-2.56.73-5.19,2.2-7.66,1.96-2.14-.21-4.09-2.35-6.12-3.64-1.32-2.57-1.02-6.77-6.82-6.24,1.01,3.03,1.8,5.39,2.59,7.74.1,1.16.43,2.37.23,3.48-.27,1.5-.95,2.93-1.46,4.39-1.3-.81-2.72-1.48-3.87-2.47-1.11-.95-1.94-2.23-2.89-3.36Z"/>
      <path class="cls-5" d="m171.88,379.91c.95,1.13,1.78,2.41,2.89,3.36,1.15.99,2.57,1.66,3.87,2.47.51-1.46,1.19-2.89,1.46-4.39.2-1.11-.13-2.31-.23-3.48,1.41-.5,2.82-1,4.23-1.51,2.03,1.29,3.99,3.43,6.12,3.64,2.47.24,5.1-1.24,7.66-1.96,1.78,2.63,3.57,5.26,5.35,7.88-3.57,2.74-7.15,5.48-10.73,8.22-7.82,1.95-15.61,3.98-23.46,5.82-7.71,1.81-12.14-.86-15.1-8.82,5.98-3.74,11.95-7.48,17.93-11.23Z"/>
      <path class="cls-1" d="m294.43,141.82c-1.11-2.29-3.3-4.65-3.15-6.86.58-8.76-5.66-13.6-10.14-19.5-1.17-1.54-2.17-3.2-3.24-4.81,4.85-3.98,9.38-1.27,13.93.68-.72,3.02-1.44,6.05-2.16,9.08.83.46,1.65.93,2.48,1.39,1.44-1.98,2.87-3.95,4.31-5.93,2.05.63,4.11,1.26,7.08,2.17,1.05-2.91,2.44-6.77,3.83-10.63,4.21,2.79,8.42,5.57,12.63,8.35-3.98,3.41-7.97,6.83-11.95,10.24.76.17,1.52.34,2.29.51,1.65,1.88,3.3,3.77,4.95,5.65.11,2.83-1.63,3.71-4.07,3.84-2.08-1.75-3.25-3.96-5.99.35-1.86,2.92-7.08,3.71-10.79,5.45Zm-1.94-18.55c1.81,6.48,3.51,9.27,6.86,9.46,1.91.11,3.88-1.05,5.83-1.64.3-.45.6-.89.9-1.34-7.79-1.23-4.21-6.03-3.8-10.03-3.63,1.32-6.68,2.42-9.78,3.55Z"/>
      <path class="cls-4" d="m32.92,432.76c4.65,7.94,9.3,15.87,13.96,23.81-5.1,1.41-10.14,3.16-15.33,4.15-9,1.72-17.28-4.88-19.04-14.97,6.74-4.29,13.58-8.64,20.41-12.99Z"/>
      <path class="cls-4" d="m446.49,488.24c-.35-5.73-.73-11.47-1.04-17.2-.29-5.42-.52-10.85-.78-16.44,2.73.58,4.79,1.14,6.88,1.43,3.3.47,5.42,2.12,7.17,5.05,2.65,4.44,6.19,8.34,8.82,12.79,1.15,1.94.96,4.67,1.38,7.04-2.82,1.43-5.67,2.81-8.45,4.32-4.14,2.24-8.23,4.56-12.33,6.84-.29-.14-.54-.1-.78.12-.24-.92-.48-1.83-.72-2.75.12-.03.25-.07.37-.11-.12.04-.25.08-.37.13-.05-.41-.11-.82-.16-1.23Z"/>
      <path class="cls-1" d="m285.77,190.85c-2.4,1.3-4.8,2.59-7.2,3.89.31.16.62.33.92.49-1.71,2.33-3.36,4.71-5.18,6.94-.35.43-1.61.61-2.12.32-8.27-4.73-16.57-2.26-24.9-.31-1.83.43-3.74.56-7.29,1.08,1.42-3.53,2.3-5.75,3.19-7.96,1.69-1.21,3.39-2.43,5.08-3.64,5.82,5.56,12.68,6.19,20.04,4.1,2.78-.79,5.16-2.08,4.24-6.15-4.41,3.13-6.37.1-8.39-2.82,4.93-5.31,9.85-10.61,14.78-15.92,2.97,3.59,5.94,7.17,8.91,10.76-2.47,1.16-4.95,2.31-7.1,3.31,1.69,1.99,3.35,3.95,5.01,5.91Z"/>
      <path class="cls-1" d="m391.53,105.21c7.46-1.05,12.57-5.64,16.96-11.29,1.21-.61,2.42-1.22,3.63-1.83,1.7-1.32,3.3-2.78,5.12-3.89.93-.57,2.25-.51,3.39-.74-.41,1.09-.5,2.57-1.28,3.21-4.34,3.58-8.88,6.92-13.29,10.41-1.68,1.33-3.21,2.86-5.2,4.64,7.01,10.41,11.9,22.37,22.13,30.57-2.7,2.83-5.4,5.67-8.1,8.5-6.82-11.72-13.63-23.44-20.47-35.14-.89-1.53-1.93-2.96-2.9-4.44Z"/>
      <path class="cls-4" d="m488.04,211.82c-.94-10.04-1.91-20.07-2.72-30.12-.05-.59,1.19-1.28,1.83-1.92.49.03.99.09,1.48.09,11.65.17,12.76,1.28,12.43,12.8-.26,9.13-3.31,16.42-13.02,19.15Z"/>
      <path class="cls-3" d="m422.52,585.48c3.41.12,6.82.31,10.23.33,9.8.06,19.61-.02,29.41.11,1.71.02,3.42.74,5.13,1.14-.75,4.33-1.5,8.65-2.25,12.98-4.65-.93-9.36-1.64-13.94-2.84-9.22-2.39-18.37-5.03-27.54-7.63-.74-.21-1.36-.86-2.04-1.3.33-.93.66-1.87,1-2.8Z"/>
      <path class="cls-1" d="m393.08,196.11c-3.39-3.77-1.78-9.27,3.37-11.03,1.96-.67,4.09-.97,6.16-1.18,2.48-.24,4.69.2,6.86-2.38.97-1.16,6.44-.47,7.81,1.13,1.59,1.85,2.3,5.85-1.26,8.17-.85.56-1.7,1.74-1.8,2.72-.25,2.47-.15,4.98-.06,7.47.12,3.49-1.47,5.22-4.98,5.17-3.24-2.13-5.51-4.63-3.04-8.67-4.61-.5-8.84-.95-13.06-1.41Z"/>
      <path class="cls-3" d="m105.59,307.78c5.36,1.43,10.72,2.85,16.09,4.28-1.18,2.28-2.13,4.7-3.57,6.8-3.91,5.7-8.02,11.27-12.04,16.88-8.3.83-8.6.53-7.79-7.84.02-.35.05-.69.07-1.04-.09-.51-.19-1.02-.28-1.53.81-1.06,1.91-2,2.36-3.19,1.83-4.75,3.46-9.57,5.16-14.37Z"/>
      <path class="cls-1" d="m322.39,654.1c2.72-.32,4.82.22,4.89,3.55-.69,1.62-1.66,3.17-2.02,4.86-.63,2.93.2,4.88,3.8,3.94,3-.5,6-1,8.99-1.5.76.57,1.72,1.01,2.26,1.75,1.33,1.82,2.84,3.66,3.51,5.74.26.79-1.89,3.37-2.36,3.23-1.97-.6-3.73-1.92-5.72-3.08-2.17,1.36-4.79,3.61-7.83,4.62-1.53.51-5.29-.94-5.52-2.03-1.78-8.62-8.28-13.85-13.42-20.08-.95-1.15-1.87-2.96-1.63-4.23.15-.81,2.49-1.2,3.84-1.78.69,5.81,5.33,8.41,9.29,12.44.79-3.06,1.35-5.25,1.91-7.43Z"/>
      <path class="cls-1" d="m124.04,135.75c-2.73,2.48-5.22.84-6.63-1.22-2.17-3.16-5.13-6.42-2.49-10.97,1.07-1.85,1.08-4.29,2.07-6.2,1.18-2.25,2.59-4.6,4.5-6.16,1.33-1.08,3.67-1.06,5.58-1.25,6.96-.71,10.12,2.56,9.66,9.87-3.19,1.65-6.58,3.03-9.51,5.06-1.88,1.31-3.08,3.6-5.06,6.03.37.94,1.13,2.88,1.88,4.83Z"/>
      <path class="cls-1" d="m451.83,679.76c.06-.33.04-.72.21-.97,1.6-2.3,3.44-5.51,6.44-3.41,1.4.98.88,4.7,1.33,7.82,1.82,1.77,6.1,4.08,6.74,7.15.47,2.25-3.99,5.39-5.98,8.33-3.2,4.72-6.07,9.66-9.26,14.39-2.77,4.11-5.43,3.98-7.29-.15,6.59-1.14,6.39-7.7,10.13-11.12-.26-.33-.51-.65-.77-.98h-7.82c-.99-2.57-1.01-4.68,2.43-5.17,2.8-1.2,8.29,2,7.71-4.72-1.29-3.72-2.57-7.45-3.86-11.17Z"/>
      <path class="cls-1" d="m448.04,530.78c-1.65-.63-3.3-1.26-4.95-1.88-.37-2.77-.75-5.53-1.1-8.16-1.39-.83-3.08-1.64-4.55-2.75-3.75-2.84-5.32-2.4-7.12,2.18-.28.71-.78,1.33-1.18,2-2.75-2.32-4.24-4.29-1.17-8.02,3.17-3.84,5.79-7.11,11.5-6.38,5.42.69,8.93,3.85,11.55,7.96,1.66,2.6,3.2,6.14,2.75,8.93-.37,2.31-3.74,4.14-5.78,6.18,0,0,.06-.06.06-.06Z"/>
      <path class="cls-4" d="m464.89,180.56c4.2.02,5.45,2.27,6.6,6.27,2.46,8.54-.84,16.66-.72,24.98.01.66-2.94,1.36-4.51,2.04-5.77-5.52-7.17-12.59-6-19.96.72-4.57,3.03-8.9,4.62-13.33Z"/>
      <path class="cls-1" d="m224.18,441.65c3.68-3.99,7.24-8.09,11.06-11.94,4.98-5.01,10.18-9.81,15.28-14.7,1.44,1.53,2.89,3.06,4.34,4.59-9.52,9-19.05,18.01-28.57,27.02-.7-1.65-1.41-3.31-2.11-4.96Z"/>
      <path class="cls-1" d="m379.11,641.84c1.28-.47,2.63-1.47,3.83-1.32,14.64,1.86,29.5,4.19,42.99-3.8,5.68-3.36,10.09-8.88,14.99-13.51,1.09-1.03,1.83-2.44,2.73-3.67l1.67.86c-1.08,2.46-1.71,5.29-3.33,7.33-9.31,11.7-21.61,17.7-36.56,18.17-4.49.14-8.99.05-13.48.06-2.74-.69-5.51-1.29-8.21-2.11-1.6-.49-3.1-1.33-4.65-2.02Z"/>
      <path class="cls-1" d="m478.08,400.34c-6,3.9-15.29,1.68-18.19-4.36,1.17-1.11,2.34-2.22,3.51-3.33,3.76,1.36,9.15,4.98,10.99,3.66,6.24-4.48,18.42-3.56,16.8-16.22-.13-1.02.58-2.15.89-3.23,0,0-.05.04-.05.04,2.37,2.45,5.08,4.66,7.03,7.41,2.32,3.29,1.52,6.2-2.56,7.67-1.36.49-2.82.77-4.13,1.38-4.79,2.27-9.53,4.63-14.3,6.96Z"/>
      <path class="cls-1" d="m307.08,539.3c3.93-2.27,7.86-4.54,11.8-6.81,1.12,3.76,2.25,7.52,3.37,11.29.23,2.81.45,5.62.68,8.45-3.07.31-5.41.54-7.84.79.43,1.85.76,3.24,1.09,4.63-.86.42-1.85.68-2.55,1.28-1.63,1.4-3.62,3.54-5,.62-.7-1.49.61-4.26,1.64-6.12.56-1.02,2.4-1.34,3.84-2.07-2.31-3.97-4.66-8.01-7.02-12.06Z"/>
      <path class="cls-1" d="m115.25,490.04c-3.26-2.41-6.67-4.66-9.68-7.36-.8-.71-.67-2.83-.47-4.24,1.01-7.17,10.12-12.93,16.67-10.09,1.83.79,2.58,4.06,3.83,6.2-3.73,2.55-7.47,5.11-10.76,7.36.14,2.68.28,5.4.42,8.12Z"/>
      <path class="cls-1" d="m323.62,475.04c4.43-1.97,8.86-3.95,13.29-5.92.4,3.95.79,7.9,1.19,11.85-.2,2.84-.4,5.69-.6,8.56-3.11-.35-5.61-.63-7.8-.87-.62,2-1.04,3.37-1.47,4.75-1.98.37-3.94.87-5.93.98-.37.02-1.34-2.09-1.17-2.23,2.34-2.06,4.83-3.95,8.22-6.62-1.52-2.78-3.62-6.63-5.72-10.49Z"/>
      <path class="cls-3" d="m204.95,282.56c4.57-2.17,9.14-4.33,13.7-6.5,1.43,5,2.87,10.01,4.31,15.01-2.35,8.01-4.98,8.9-11.55,3.93-2.15-4.15-4.3-8.29-6.46-12.44Z"/>
      <path class="cls-2" d="m328.23,493.4c.42-1.37.85-2.75,1.47-4.74,2.19.25,4.7.53,7.8.87.2-2.87.4-5.72.6-8.56.92.06,1.85.12,2.77.18.93,1.96,1.87,3.93,2.8,5.89.52-.03,1.05-.06,1.57-.08.35-2.56.69-5.12,1.04-7.68,5.66-3.26,11.52-3.55,17.55-1.18-.82.89-1.59,2.51-2.46,2.57-7.77.54-13.07,5.28-17.63,10.7-3.92,4.67-8.19,5.55-13.54,3.5-.66-.49-1.32-.99-1.98-1.48Z"/>
      <path class="cls-5" d="m243.54,296.53c2.39,2.64,5.32,4.99,6.99,8.03,1.45,2.64.87,5.63-2.66,7.34-7.29,3.53-9.54,2.79-16.9-6.34,4.19-3.01,8.38-6.02,12.57-9.02Z"/>
      <path class="cls-3" d="m338.06,664.95c-3,.5-6,1-8.99,1.5.31-3.04.61-6.08.92-9.11,2.36-3.92,4.71-7.84,7.07-11.75,4.19,3.82,8.37,7.63,12.56,11.45-3.85,2.64-7.71,5.28-11.56,7.92Z"/>
      <path class="cls-4" d="m414.9,371.75c2.54,2.35,5.09,4.7,8.05,7.43,1.11-2.27,2.15-4.4,3.19-6.53,0,0,.45,0,.45,0l.45-.08c.97,1.88,1.94,3.76,2.91,5.64l-.03.28c-1.38.87-3.17,1.43-4.05,2.65-2.66,3.68-5.71,3.93-9.94,2.93-6.96-1.64-14.13-2.4-21.21-3.53,3.28-2.44,6.56-4.87,9.85-7.31,2.6,3.55,5.66,6.26,10.67,6.6-.57-2.95-1-5.18-1.43-7.4.36-.23.72-.46,1.08-.7Z"/>
      <path class="cls-4" d="m108.43,337.42c.52,1.6,1.04,3.2,1.73,5.31,4.65,1.16,6.14,5.43,6.88,10.24-2.14-.36-4.57-.2-6.36-1.19-4.59-2.54-8.8-5.74-13.34-8.38-3.56-2.07-6.04-4.43-5.41-8.98.11-.83-.89-1.82-1.37-2.73.39-.86.78-1.72,1.17-2.58,1.37,1.52,3.37,2.83,3.99,4.61,1.43,4.18,3.71,5.91,8,4.96,1.59-.35,3.14-.84,4.71-1.26Z"/>
      <path class="cls-3" d="m124.04,135.75c-.76-1.94-1.51-3.88-1.88-4.83,1.98-2.43,3.18-4.72,5.06-6.03,2.93-2.04,6.32-3.41,9.51-5.06,4.54,8.37,3.03,13.38-4.79,17.67-3.48,1.91-5.85,1.49-7.9-1.75Z"/>
      <path class="cls-1" d="m105.87,191.86c2.09-6.89,4.08-13.81,6.32-20.64.69-2.12.41-5.53,4.83-5.14-2.13,8.02-4.34,15.64-6.17,23.36-2.46,10.35-4.25,20.87-7.19,31.07-.8,2.79.82,7.74-4.42,8.52.74-4.73,1.39-9.47,2.24-14.18,1.39-7.68,2.92-15.33,4.39-22.99Z"/>
      <path class="cls-4" d="m215.01,304.71c-.68-.92-1.35-1.84-2.03-2.76,1.5-.27,3.04-.41,4.5-.84,2-.58,4.88-.83,5.7-2.21,1.33-2.25,1.28-5.31,1.82-8.02.09-.14.17-.38.27-.4,5.91-.82,11.83-1.61,17.75-2.41-1.34,2.07-2.33,4.53-4.09,6.14-2.79,2.53-6.27,4.29-9.14,6.74-4.38,3.74-8.74,6.84-14.78,3.78Z"/>
      <path class="cls-2" d="m188.95,669.64c4.6,10.1,4.36,10.35-4.7,16.55-3.79,2.59-6.12,1.63-7.99-1.81-1.08-1.99-1.6-4.29-2.37-6.45,3.06-2.01,6.05-4.14,9.21-5.96,1.8-1.04,3.89-1.57,5.85-2.33Z"/>
      <path class="cls-1" d="m88.11,596.75c-2.19-2.64-4.39-5.28-6.58-7.93-4.07-4.92-7.73-10.04-8.58-16.5.45-.27.89-.53,1.34-.8,1.2,1.89,2.55,3.69,3.57,5.67,6.6,12.74,17.69,20.86,29.15,28.65,2.53,1.72,4.75,3.9,7.11,5.87-3.37,2.6-5.42-.64-7.56-2.04-6.28-4.1-12.31-8.59-18.44-12.92Z"/>
      <path class="cls-1" d="m330.21,494.88c5.35,2.05,9.62,1.16,13.54-3.5,4.56-5.43,9.86-10.16,17.63-10.7.88-.06,1.65-1.68,2.46-2.57.59-.05,1.18-.11,1.76-.16,1.51,4.11-.58,6.37-4.23,7.26-8.12,1.99-13.79,6.77-18.25,13.8-3.73,5.88-7.31,5.18-13.1-1.7.06-.81.12-1.62.18-2.43Z"/>
      <path class="cls-1" d="m349.26,537.05c-1.12,2.1-1.7,5.2-3.44,6.13-7.8,4.19-13,10.16-15.94,18.55-1.85,5.28-7.14,4.84-11.53-.63-.35-.78-.7-1.55-1.06-2.33,6.78,1.56,10.8-1.59,13.1-7.67,1.23-1.68,2.47-3.37,3.7-5.05.34-.44.69-.88,1.03-1.32.66-.89,1.31-1.77,1.97-2.66,3.57-1.74,8.65-1.11,9.96-6.37l2.2,1.35Z"/>
      <path class="cls-1" d="m394.73,380.55c7.08,1.13,14.25,1.9,21.21,3.53,4.23.99,7.28.74,9.94-2.93.88-1.22,2.67-1.79,4.05-2.65.08,3.44.16,6.88.25,10.32-1.96,3.62-5.92,2.91-7.78,1.58-7.89-5.67-16.67-4.48-25.34-4.34-3.04.05-5.3-.28-5.22-4.01.96-.5,1.93-1.01,2.89-1.51Z"/>
      <path class="cls-1" d="m33.06,672.08c-2.04-2.3-3.83-4.91-6.18-6.83-3.03-2.48-6.5-4.42-9.79-6.59-.94-.57-1.91-1.09-2.8-1.72-1.43-1.01-3.74-1.91-3.99-3.19-.35-1.78.3-4.4,1.53-5.69,1.5-1.57,4.06-2.14,6.16-3.14.36,3.18-.48,7.66,1.3,9.29,5.33,4.86,11.68,8.61,17.63,12.79.29,2.89-.41,5.04-3.86,5.09Z"/>
      <path class="cls-3" d="m451.83,679.76c1.29,3.72,2.57,7.45,3.86,11.17-2.65.73-5.31,1.45-7.96,2.18-3.9-2.11-7.79-4.21-11.69-6.32,4.15-3.76,8.29-7.52,12.44-11.29,1.12,1.42,2.23,2.84,3.34,4.26Z"/>
      <path class="cls-5" d="m160.83,668.85c1.55.87,3.1,1.75,5.02,2.83,1.04-2.29,2.11-4.66,3.18-7.02.97,1.73,1.94,3.45,3.06,5.45,3.63-.91,4.37-4.05,4.98-7.29,3.82-1.16,7.64-2.33,11.06.99-5.01,3.29-10.09,6.49-15.02,9.9-3.16,2.19-6.02,4.48-9.84,1-.92-.83-2.81-.59-4.26-.85l.09.1c.58-1.7,1.16-3.41,1.74-5.11Z"/>
      <path class="cls-5" d="m91.93,136.01c0-3.27,0-6.54-.01-9.81,2.53,2.36,5.7,4.32,7.47,7.15,3.29,5.27.04,17.01-5.7,21.38-.61-6.46-1.18-12.59-1.76-18.72Z"/>
      <path class="cls-1" d="m367.8,231.07c.65-.07,1.3-.13,1.95-.2,13.11,9.8,28.44,12,44.35,12.25-.04.64-.09,1.27-.13,1.91-6.52.23-13.04.46-19.56.69-8.2-3.55-16.44-7-24.55-10.76-1.06-.49-1.39-2.55-2.06-3.89Z"/>
      <path class="cls-1" d="m159,673.86c1.45.25,3.34.01,4.26.85,3.82,3.48,6.68,1.19,9.84-1,4.93-3.41,10.01-6.61,15.02-9.9,1,.76,2.83,1.54,2.81,2.28-.03,1.2-1.26,2.37-1.98,3.56-1.96.76-4.05,1.29-5.85,2.33-3.16,1.82-6.15,3.96-9.21,5.96-.98.86-1.88,1.83-2.94,2.56-1.75,1.21-3.57,3.07-5.43,3.15-1.4.06-3.27-2.01-4.24-3.56-1.15-1.83-1.55-4.13-2.27-6.23Z"/>
      <path class="cls-1" d="m215.01,304.71c6.04,3.06,10.4-.04,14.78-3.78,2.87-2.45,6.35-4.21,9.14-6.74,1.77-1.6,2.76-4.06,4.09-6.14,4.81,1.66,4.96,4.17.51,8.48-4.19,3.01-8.38,6.01-12.57,9.02-2.86,1.81-5.57,3.97-8.64,5.29-1.8.78-4.95,1.09-6.08.06-1.25-1.15-.9-4.05-1.25-6.19Z"/>
      <path class="cls-1" d="m148.09,250.88c-2.9-2.21-5.79-4.42-8.69-6.63l.84-1.66c14.49,9.33,29.92,14.53,47.4,10.73.08.44.15.88.23,1.32-.62.77-1.24,1.53-1.86,2.3-3.57.33-7.13.66-10.7.99-9.91.91-18.56-3.1-27.22-7.04Z"/>
      <path class="cls-1" d="m462.07,262.13c-.66-.16-1.33-.32-1.99-.49-2.52-5.6-4.83-11.29-7.6-16.76-3.43-6.8-7.24-13.42-10.88-20.12.51-.41,1.01-.82,1.52-1.23.99,1,2.21,1.86,2.93,3.03,4.34,7.1,8.56,14.27,12.82,21.41,1.43,3.17,3.13,6.25,4.17,9.54.42,1.31-.61,3.07-.97,4.62Z"/>
      <path class="cls-1" d="m90.57,331.69c.49.91,1.49,1.9,1.37,2.73-.63,4.55,1.86,6.91,5.41,8.98,4.54,2.64,8.75,5.84,13.34,8.38,1.79.99,4.22.83,6.36,1.19,0,0-.04-.11-.04-.11-.19.26-.15.48.11.67.58,3.24-1.87,3.92-4.08,4.8-8.62-5.71-17.24-11.41-25.83-17.17-.58-.39-.85-1.25-1.26-1.89-.33-3.66,1.25-6.16,4.61-7.57Z"/>
      <path class="cls-5" d="m36.92,666.98c-5.95-4.18-12.3-7.93-17.63-12.79-1.78-1.62-.94-6.11-1.3-9.29.1-.29.21-.58.32-.86,1.5-.03,3-.06,4.5-.09-.4,1.65-.79,3.3-1.26,5.25,2.77.55,5.57,1.11,8.38,1.67.03.28.08.55.13.82-1.73.99-3.45,1.98-5.18,2.97.02.54.04,1.07.06,1.61l10.09,1.72c.63,2.99,1.26,5.99,1.9,8.98Z"/>
      <path class="cls-3" d="m115.25,490.04c-.14-2.72-.28-5.44-.42-8.12,3.29-2.25,7.03-4.81,10.76-7.36,3.38,3.64,3.62,7.92,1.28,11.86-2.57,4.32-6.77,5.54-11.62,3.63Z"/>
      <path class="cls-3" d="m429.14,522.16c.4-.66.9-1.29,1.18-2,1.8-4.58,3.37-5.03,7.12-2.18,1.46,1.11,3.15,1.92,4.55,2.75.35,2.63.73,5.39,1.1,8.16-8.01,3.49-11.4,1.86-13.94-6.73Z"/>
      <path class="cls-3" d="m393.08,196.11c4.23.46,8.45.91,13.06,1.41-2.47,4.05-.2,6.55,3.04,8.67-4.04,4.65-11.5,3.77-14.51-2.08-1.2-2.33-1.1-5.31-1.6-8Z"/>
      <path class="cls-5" d="m264.17,186.78c2.01,2.92,3.98,5.95,8.39,2.82.92,4.07-1.46,5.36-4.24,6.15-7.36,2.09-14.22,1.46-20.04-4.1,2.19-1.17,4.37-2.34,6.56-3.51,1.09,2.38,2.19,4.76,3.28,7.14.45-.19.9-.38,1.35-.57.6-2.64,1.19-5.28,1.79-7.92.97,0,1.94-.01,2.92-.02Z"/>
      <path class="cls-4" d="m477.17,473.94c-4.82-3.2-5.82-7.82-4.89-13.15,3.65.85,7.36,1.49,10.93,2.6,3.47,1.08,3.73,3.36.8,5.63-2.22,1.72-4.56,3.29-6.84,4.92Z"/>
      <path class="cls-2" d="m330.39,551.11c-2.31,6.08-6.33,9.23-13.1,7.67-.37-.38-.74-.75-1.11-1.13-.32-1.39-.65-2.78-1.09-4.63,2.44-.24,4.78-.48,7.84-.79-.23-2.84-.45-5.65-.68-8.45.89-.07,1.78-.13,2.67-.2,1.1,1.45,2.2,2.9,3.3,4.34.73,1.06,1.45,2.12,2.18,3.19Z"/>
      <path class="cls-2" d="m184.26,530.09c1.54,3.2,1.13,5.41-2.93,5.79-3.74.35-7.49.7-11.23,1.05-.78-1.65-1.56-3.3-2.56-5.43,6.16-.52,11.44-.96,16.72-1.4Z"/>
      <path class="cls-1" d="m225,290.87c-.54,2.72-.49,5.77-1.82,8.02-.82,1.38-3.69,1.63-5.7,2.21-1.46.43-3,.57-4.5.84-2.75-.68-7.73,1.92-6.88-3.93,2.06-1.18,3.68-2.1,5.29-3.03,6.58,4.97,9.2,4.08,11.55-3.93.68-.06,1.37-.13,2.05-.2Z"/>
      <path class="cls-3" d="m346.15,66.81c7.72,7.34,15.46,14.66,23.13,22.05.74.71,1.04,1.87,1.54,2.81-2.36-1.71-4.97-3.16-7.01-5.19-6.39-6.35-12.56-12.91-18.82-19.4.39-.09.78-.19,1.16-.28Z"/>
      <path class="cls-1" d="m108.43,337.42c-1.57.43-3.12.91-4.71,1.26-4.29.95-6.56-.78-8-4.96-.61-1.78-2.61-3.09-3.99-4.61-.29-1.86-.57-3.73-1.13-7.44,3.29,1.61,5.37,2.63,7.45,3.65.1.51.19,1.02.29,1.54-.02.35-.05.69-.07,1.04-.81,8.36-.51,8.66,7.79,7.84.79.56,1.58,1.12,2.37,1.69Z"/>
      <path class="cls-4" d="m322.39,654.1c-.56,2.18-1.12,4.36-1.91,7.43-3.96-4.03-8.6-6.64-9.29-12.44,4.66-.39,8.7.59,11.21,5.01Z"/>
      <path class="cls-1" d="m487.25,374.94c-.12-.34-.24-.69-.36-1.03.66-7.12,3.52-8.59,10.58-4.46-1.85,2.54-3.65,5-5.44,7.46l.05-.04c-1.61-.64-3.22-1.28-4.83-1.93Z"/>
      <path class="cls-4" d="m141.59,375.13c-.58-4.02-1.17-8.04-1.75-12.06,1.17-.61,2.28-1.41,3.51-1.8,3.13-.99,4.81.43,3.66,3.43-1.39,3.64-3.58,6.97-5.42,10.43Z"/>
      <path class="cls-1" d="m22.82,643.96c-1.5.03-3,.06-4.5.09-.49-.65-1.2-1.23-1.44-1.97-.63-1.87-1.19-3.8-1.42-5.75-.03-.24,2.24-1.23,3.25-1,2.29.5,5.11.92,4.53,4.49-.14,1.38-.27,2.77-.41,4.15Z"/>
      <path class="cls-1" d="m413.82,372.45c.43,2.22.86,4.44,1.43,7.4-5.01-.34-8.07-3.05-10.67-6.6,2.81-3.35,6.11-1.1,9.24-.79Z"/>
      <path class="cls-1" d="m160.83,668.85c-.58,1.7-1.16,3.41-1.74,5.11-1.8-.02-3.65.23-5.37-.13-1.31-.27-2.45-1.32-3.67-2.02,1.07-1.3,1.9-3.06,3.27-3.76,1.32-.67,3.2-.25,4.83-.3.89.37,1.79.74,2.68,1.11Z"/>
      <path class="cls-4" d="m394.01,547.82c-4.29-2.15-8.28-4.56-8.84-10,.97.26,1.93.51,2.9.77.32.07.65.15.98.22,1.63.53,3.25,1.06,4.96,1.61v7.4Z"/>
      <path class="cls-2" d="m336.86,192.93c-2.57-2.26-5.14-4.52-7.72-6.78,1.14-.06,2.29-.24,3.41-.16,2.04.15,4.07.45,6.1.69-.6,2.08-1.2,4.17-1.8,6.25Z"/>
      <path class="cls-1" d="m261.25,186.8c-.6,2.64-1.19,5.28-1.79,7.92-.45.19-.9.38-1.35.57-1.09-2.38-2.19-4.76-3.28-7.14,1.3-4.45,4.04-2.04,6.42-1.34Z"/>
      <path class="cls-5" d="m296.46,115.87c-1.44,1.98-2.87,3.95-4.31,5.93-.83-.46-1.65-.93-2.48-1.39.72-3.03,1.43-6.06,2.16-9.08,1.55,1.52,3.09,3.03,4.63,4.54Z"/>
      <path class="cls-1" d="m35.03,658l-10.09-1.72c-.02-.54-.04-1.07-.06-1.61,1.73-.99,3.45-1.98,5.18-2.97,1.65,2.1,3.31,4.2,4.96,6.3Z"/>
      <path class="cls-4" d="m329.98,657.34c-.31,3.04-.61,6.08-.92,9.11-3.6.94-4.43-1.01-3.8-3.94.36-1.69,1.33-3.25,2.02-4.86.9-.1,1.8-.21,2.7-.31Z"/>
      <path class="cls-1" d="m177.06,662.82c-.61,3.24-1.34,6.38-4.98,7.29-1.12-2-2.09-3.72-3.06-5.45.07-.23.07-.47,0-.7,2.68-.38,5.36-.76,8.05-1.15Z"/>
      <path class="cls-1" d="m346.28,479.28c-.35,2.56-.69,5.12-1.04,7.68-.52.03-1.05.06-1.57.08-.93-1.97-1.87-3.93-2.8-5.89,1.8-.62,3.61-1.25,5.41-1.87Z"/>
      <path class="cls-4" d="m447.73,693.11c2.65-.73,5.3-1.45,7.96-2.18.58,6.72-4.91,3.52-7.71,4.72-.08-.85-.16-1.7-.25-2.54Z"/>
      <path class="cls-3" d="m177.24,16.55c2.61-.54,5.23-1.01,7.82-1.63,1.64-.4,3.23-1.01,4.85-1.53,2,1.14,3.99,2.27,5.98,3.41-6.22-.08-12.43-.17-18.64-.25Z"/>
      <path class="cls-3" d="m414.88,267.33c-3.97.8-7.94,1.59-11.92,2.39.65-.67,1.3-1.33,1.94-2,3.32-.13,6.65-.26,9.97-.39Z"/>
      <path class="cls-3" d="m402.89,269.81c-.42.53-.85,1.05-1.27,1.57.42-.53.85-1.05,1.27-1.57Z"/>
      <path class="cls-4" d="m117.12,353.53c-.26-.19-.3-.41-.11-.67.12.16.24.31.37.47-.09.07-.17.13-.26.2Z"/>
      <path class="cls-3" d="m389.04,538.81c-.33-.07-.65-.15-.98-.22.33.07.65.15.98.22Z"/>
      <path class="cls-3" d="m447.37,492.19c.23-.22.49-.26.78-.12-.26.34-.52.69-.78,1.03-.21-.32-.21-.62,0-.91Z"/>
      <path class="cls-2" d="m170.09,536.92c-.27.26-.53.51-.8.77.27-.26.53-.51.8-.77Z"/>
      <path class="cls-1" d="m345.79,123.54c-3.01-7.26-6.02-14.52-9.02-21.78.41-.82.82-1.64,1.23-2.45.76.92,1.72,1.73,2.23,2.77,4.03,8.16,7.7,16.49,12,24.5,5.09,9.49,13.56,14.67,24.03,16.05,3.68.49,7.6-.89,12.29-.37-1.26.92-2.39,2.3-3.8,2.69-10.26,2.89-19.45.38-26.95-6.89-4.48-4.35-8.05-9.65-12.02-14.52Z"/>
      <path class="cls-3" d="m371.28,92.14c2.12,2.21,4.25,4.41,6.37,6.62-2.12-2.21-4.25-4.41-6.37-6.62Z"/>
      <path class="cls-3" d="m381.33,102.18h.39s.05.39.05.39-.36-.05-.36-.05l-.08-.34Z"/>
      <path class="cls-3" d="m378.34,99.15l.41.03s.04.41.04.41-.36-.08-.36-.08l-.08-.36Z"/>
      <path class="cls-1" d="m307.95,452.64c-4.29,1.9-8.58,3.83-12.89,5.68-2.63,1.14-5.32,2.16-7.98,3.24-6.69-.02-13.39.24-20.06-.17-2.76-.17-5.42-1.77-8.13-2.72.16-.63.32-1.25.48-1.88,2.54.39,5.27.29,7.57,1.24,8.8,3.63,17.15,1.36,25.17-2.01,6.22-2.61,11.95-6.35,17.94-9.53,1.46-.78,3.06-1.3,4.6-1.94.36.52.72,1.05,1.07,1.57-2.59,2.17-5.18,4.33-7.78,6.5Z"/>
      <path class="cls-3" d="m216.16,537.77c.29-2.16.58-4.31.88-6.47,3.77,2.71-.19,4.37-.88,6.47Z"/>
      <path class="cls-3" d="m211.93,530.8c-.92,0-1.84-.02-2.76-.03.92,0,1.84.02,2.76.03Z"/>
      <path class="cls-3" d="m446.65,489.46c.12-.04.25-.08.37-.13-.12.04-.25.07-.37.11,0,0,0,.02,0,.02Z"/>
      <path class="cls-3" d="m149.17,64.66c-5.2-11.04-2.43-26.29,6.47-35.66-.13,1.05.07,2.31-.44,3.12-4.55,7.18-7.23,14.83-6.29,23.45.19,1.76.99,3.46,1.09,5.22.08,1.27-.53,2.59-.83,3.88Z"/>
      <path class="cls-3" d="m291.89,348.01c-3.85,2.96-7.69,5.91-11.53,8.87,2.17-5.14,5.92-8.21,11.53-8.87Z"/>
      <path class="cls-3" d="m276.31,379.04c1.08,1.72,2.16,3.44,3.24,5.16-2.86-.6-5.18-1.55-3.24-5.16Z"/>
      <path class="cls-3" d="m296.79,346.71c-1.52.37-3.04.73-4.55,1.1,1.52-.37,3.04-.73,4.55-1.1Z"/>
      <path class="cls-3" d="m287.55,393.69c.81.62,1.63,1.24,2.44,1.86-.81-.62-1.62-1.24-2.44-1.86Z"/>
      <path class="cls-3" d="m309.59,348.2c-.77-.35-1.54-.7-2.3-1.05.77.35,1.53.7,2.3,1.05Z"/>
      <path class="cls-3" d="m290.38,395.95c.51.18,1.02.36,1.53.53-.28.27-.55.54-.83.82-.24-.45-.47-.9-.71-1.35Z"/>
      <path class="cls-3" d="m276.69,366.27c-.1.84-.19,1.68-.29,2.51.1-.84.19-1.68.29-2.51Z"/>
      <path class="cls-3" d="m276.45,374.98c-.05.58-.1,1.16-.15,1.74.05-.58.1-1.16.15-1.74Z"/>
      <path class="cls-3" d="m304.72,346.76c-.46-.03-.92-.07-1.37-.1.46.03.91.07,1.37.1Z"/>
      <path class="cls-3" d="m313.59,350.12c-.45-.31-.9-.61-1.34-.91.45.31.9.61,1.34.91Z"/>
      <path class="cls-3" d="m286.43,392.9c.26.17.52.34.78.51-.26-.17-.52-.34-.78-.51Z"/>
      <path class="cls-3" d="m280.39,386.03c.15.2.29.39.44.58,0,0-.41-.15-.41-.15l-.03-.43Z"/>
      <path class="cls-3" d="m281.64,387.63c.15.28.31.56.46.84-.15-.28-.31-.56-.46-.84Z"/>
      <path class="cls-3" d="m284.37,390.99c.23.18.46.37.68.55-.23-.19-.45-.37-.68-.55Z"/>
      <path class="cls-3" d="m285.41,391.9c.2.21.4.43.6.64-.2-.21-.4-.42-.6-.64Z"/>
      <path class="cls-3" d="m295.34,398.09s.38.11.38.11c0,0-.25.24-.25.24l-.13-.35Z"/>
      <path class="cls-3" d="m439.81,264.93c-.48.57-.95,1.61-1.45,1.63-6.64.29-13.29.44-19.94.62,7.13-.75,14.26-1.51,21.39-2.26Z"/>
      <path class="cls-1" d="m426.75,313.13c-2.86.88-5.71,1.77-8.57,2.65-.04-.58-.09-1.16-.13-1.73,5.84-4.6,12.02-8.84,17.42-13.92,5.19-4.88,7.82-11.3,7.67-18.68-.03-1.36.81-2.74,1.89-3.9,2.43,8.64.53,16.34-5.07,22.79-4,4.61-8.77,8.56-13.2,12.8Z"/>
      <path class="cls-5" d="m419.08,69.75c-7.12-2.08-9.05-6.82-8.24-13.96.79-6.92.39-13.97.55-20.96.06-2.61.33-5.14,4.3-4.8.58,6.71,1.65,13.39,1.58,20.07-.05,5.41.4,10.35,3.24,15.09.87,1.46.57,3.63.81,5.47-.75-.3-1.5-.61-2.24-.91Z"/>
      <path class="cls-3" d="m412.13,92.08c-1.21.61-2.42,1.22-3.63,1.83-.19-.27-.33-.61-.58-.79-4.72-3.34-5.54-7.14-1.43-11.56.49.03.97.06,1.46.1-2.24,7.89-1.76,9.08,4.18,10.43Z"/>
      <path class="cls-4" d="m463.4,392.66c2.4-1.49,4.8-2.98,7.2-4.48.89.9,1.84,2.64,2.64,2.56,2.93-.27,5.81-1.14,8.71-1.78-1.94-1.74-3.89-3.47-5.83-5.21.62-.94,1.23-1.88,1.85-2.81,2.82.62,5.65,1.23,8.54,1.86.28-2.92.51-5.39.75-7.86,1.61.64,3.22,1.29,4.83,1.93-.32,1.08-1.02,2.21-.89,3.23,1.62,12.67-10.56,11.75-16.8,16.22-1.84,1.32-7.23-2.3-10.99-3.66Z"/>
      <path class="cls-5" d="m292.48,123.27c3.1-1.13,6.15-2.23,9.78-3.55-.41,4.01-3.99,8.8,3.8,10.03-.3.45-.6.89-.9,1.34-1.94.59-3.92,1.75-5.83,1.64-3.35-.19-5.05-2.98-6.86-9.46Z"/>
      <path class="cls-1" d="m427.05,372.58c2.19-3.96,5.94-2.67,9.22-2.56.67.02,1.9,1.62,1.8,2.35-.17,1.25-.91,2.85-1.91,3.45-1.87,1.12-4.11,1.63-6.2,2.39-.97-1.88-1.94-3.76-2.91-5.64Z"/>
      <path class="cls-2" d="m334.31,539c4.02-2,7.66-5.42,12.75-3.3-1.31,5.27-6.39,4.64-9.96,6.37-.93-1.02-1.86-2.05-2.79-3.07Z"/>
      <path class="cls-3" d="m334.31,539c.93,1.02,1.86,2.05,2.79,3.07-.66.89-1.31,1.77-1.97,2.66-.07-.94-.14-1.87-.2-2.66-1.64.28-3.12.54-4.6.79-.12-.92-.23-1.84-.35-2.76,1.44-.37,2.89-.74,4.33-1.1Z"/>
      <path class="cls-3" d="m330.39,551.11c-.73-1.06-1.45-2.12-2.18-3.19.68-1.01,1.35-2.01,2.03-3.01l3.84,1.15c-1.23,1.68-2.47,3.37-3.7,5.05Z"/>
      <path class="cls-2" d="m334.09,546.05c-1.28-.38-2.56-.76-3.84-1.15.03-.68.05-1.36.08-2.04,1.48-.25,2.96-.51,4.6-.79.06.79.13,1.73.2,2.66-.34.44-.69.88-1.03,1.32Z"/>
      <path class="cls-1" d="m330.33,542.87c-.03.68-.05,1.36-.08,2.04-.68,1-1.36,2.01-2.03,3.01-1.1-1.45-2.2-2.89-3.3-4.34-.12-3.8,2.13-4.12,5.06-3.47.12.92.23,1.84.35,2.76Z"/>
      <path class="cls-1" d="m476.11,383.75c1.94,1.74,3.89,3.47,5.83,5.21-2.9.64-5.78,1.51-8.71,1.78-.79.07-1.75-1.66-2.64-2.56,1.84-1.48,3.68-2.95,5.52-4.43Z"/>
    </g>
  </g>
</svg>